#!OML:ASF H:\Dans Jumps\Project 1\Capture day 1\Session 1\subject.ASF
:FULLY-SPECIFIED
:DEGREES
177
root 0.591948 17.6182 -14.1713 5.73918 0.0682886 -1.24856
lowerback -4.2001 -0.485052 -0.054531
upperback 3.1153 -0.722438 1.50186
thorax 5.60748 -0.392006 1.52481
lowerneck -12.449 0.456784 -2.00401
upperneck 35.4281 0.980579 0.710882
head 14.1703 0.248554 0.794469
rclavicle -3.77691e-015 5.36719e-015
rhumerus -22.4238 -10.6357 -84.6647
rradius 24.4789
rwrist 32.6207
rhand -19.5607 -26.6365
rfingers 7.12502
rthumb 6.76389 -56.5085
lclavicle -3.77691e-015 5.36719e-015
lhumerus -19.016 -8.49094 91.468
lradius 19.0503
lwrist 1.77071
lhand -25.3107 -4.35107
lfingers 7.12502
lthumb 1.21144 25.6252
rfemur -11.257 -3.36257 19.1909
rtibia 18.9389
rfoot -12.3921 -3.62931
rtoes 11.4187
lfemur -9.05187 5.66157 -17.5256
ltibia 15.6038
lfoot -9.71748 5.76573
ltoes 0.363326
178
root 0.592731 17.6182 -14.1734 5.74145 0.0701517 -1.24203
lowerback -4.19084 -0.485967 -0.0541095
upperback 3.1115 -0.723568 1.50201
thorax 5.59821 -0.392508 1.52468
lowerneck -12.4489 0.457355 -2.0029
upperneck 35.4077 0.98235 0.707005
head 14.1609 0.249172 0.792776
rclavicle -4.32357e-015 1.0138e-014
rhumerus -22.4206 -10.6385 -84.6584
rradius 24.4816
rwrist 32.6153
rhand -19.5615 -26.6453
rfingers 7.12502
rthumb 6.76318 -56.5173
lclavicle -4.32357e-015 1.0138e-014
lhumerus -19.013 -8.487 91.4668
lradius 19.0347
lwrist 1.75912
lhand -25.2898 -4.32472
lfingers 7.12502
lthumb 1.23168 25.6515
rfemur -11.2744 -3.36135 19.1817
rtibia 18.9523
rfoot -12.3885 -3.63365
rtoes 11.402
lfemur -9.06611 5.66454 -17.5363
ltibia 15.6104
lfoot -9.71817 5.75758
ltoes 0.38184
179
root 0.59355 17.6181 -14.1755 5.74161 0.0710861 -1.23501
lowerback -4.17892 -0.48742 -0.0541554
upperback 3.10842 -0.725405 1.50278
thorax 5.58821 -0.393393 1.52541
lowerneck -12.4504 0.459817 -2.00085
upperneck 35.3881 0.987544 0.70081
head 14.1523 0.251064 0.790523
rclavicle 7.65321e-015 -9.93923e-016
rhumerus -22.416 -10.6395 -84.6513
rradius 24.4836
rwrist 32.6125
rhand -19.5549 -26.6623
rfingers 7.12502
rthumb 6.76947 -56.5341
lclavicle 7.65321e-015 -9.93923e-016
lhumerus -19.0115 -8.47617 91.4652
lradius 19.0211
lwrist 1.7431
lhand -25.2728 -4.29337
lfingers 7.12502
lthumb 1.24806 25.6827
rfemur -11.2902 -3.35974 19.1715
rtibia 18.9669
rfoot -12.3851 -3.63742
rtoes 11.3882
lfemur -9.07726 5.66647 -17.5474
ltibia 15.6167
lfoot -9.71931 5.75154
ltoes 0.401017
180
root 0.594355 17.618 -14.1777 5.74067 0.0723247 -1.22932
lowerback -4.16501 -0.489412 -0.0531668
upperback 3.10681 -0.728092 1.50462
thorax 5.57865 -0.394689 1.52661
lowerneck -12.4547 0.463459 -1.99956
upperneck 35.3668 0.994735 0.694675
head 14.1435 0.253735 0.788737
rclavicle -2.33572e-015 1.05356e-014
rhumerus -22.4074 -10.6401 -84.6436
rradius 24.4841
rwrist 32.6104
rhand -19.5496 -26.6764
rfingers 7.12502
rthumb 6.77464 -56.5481
lclavicle -2.33572e-015 1.05356e-014
lhumerus -19.0102 -8.46444 91.4644
lradius 19.0113
lwrist 1.73166
lhand -25.2652 -4.26652
lfingers 7.12502
lthumb 1.25547 25.7095
rfemur -11.305 -3.35652 19.1625
rtibia 18.9825
rfoot -12.3843 -3.64214
rtoes 11.3814
lfemur -9.08748 5.66762 -17.5566
ltibia 15.623
lfoot -9.71986 5.74538
ltoes 0.424605
181
root 0.595153 17.6178 -14.18 5.73781 0.073313 -1.22494
lowerback -4.14836 -0.491794 -0.0514592
upperback 3.10723 -0.731413 1.50766
thorax 5.56967 -0.396309 1.52861
lowerneck -12.463 0.468623 -1.99638
upperneck 35.3441 1.00472 0.68582
head 14.1349 0.257505 0.78596
rclavicle 6.4605e-016 -8.54774e-015
rhumerus -22.3943 -10.642 -84.6347
rradius 24.4831
rwrist 32.6126
rhand -19.543 -26.689
rfingers 7.12502
rthumb 6.78101 -56.5604
lclavicle 6.4605e-016 -8.54774e-015
lhumerus -19.0068 -8.44666 91.4633
lradius 19.0019
lwrist 1.71762
lhand -25.2576 -4.23587
lfingers 7.12502
lthumb 1.26282 25.7401
rfemur -11.3183 -3.35333 19.1549
rtibia 18.9983
rfoot -12.3849 -3.64713
rtoes 11.3815
lfemur -9.09654 5.67006 -17.5644
ltibia 15.6303
lfoot -9.71958 5.73957
ltoes 0.434499
182
root 0.595909 17.6175 -14.1825 5.73357 0.0745736 -1.22106
lowerback -4.12897 -0.494801 -0.0495716
upperback 3.10957 -0.735609 1.51115
thorax 5.56118 -0.398374 1.53091
lowerneck -12.472 0.473919 -1.99506
upperneck 35.3171 1.01494 0.678238
head 14.1245 0.261334 0.784026
rclavicle -2.73329e-015 1.2921e-014
rhumerus -22.3786 -10.6438 -84.626
rradius 24.4826
rwrist 32.6163
rhand -19.5366 -26.6979
rfingers 7.12502
rthumb 6.78721 -56.5691
lclavicle -2.73329e-015 1.2921e-014
lhumerus -19.0039 -8.43196 91.4623
lradius 18.9986
lwrist 1.71102
lhand -25.2508 -4.20264
lfingers 7.12502
lthumb 1.26933 25.7733
rfemur -11.3307 -3.34644 19.1479
rtibia 19.0145
rfoot -12.3869 -3.65595
rtoes 11.386
lfemur -9.10562 5.67421 -17.5714
ltibia 15.6385
lfoot -9.71803 5.73277
ltoes 0.433889
183
root 0.596629 17.6171 -14.1851 5.72957 0.0762247 -1.21754
lowerback -4.10845 -0.498021 -0.0481881
upperback 3.11243 -0.740069 1.51497
thorax 5.55261 -0.400599 1.53383
lowerneck -12.4787 0.479188 -1.99408
upperneck 35.2869 1.02484 0.671385
head 14.1121 0.265121 0.782353
rclavicle 2.6339e-015 -7.55382e-015
rhumerus -22.3621 -10.6448 -84.6171
rradius 24.4821
rwrist 32.6179
rhand -19.5389 -26.6952
rfingers 7.12502
rthumb 6.78495 -56.5665
lclavicle 2.6339e-015 -7.55382e-015
lhumerus -19.0047 -8.42321 91.4625
lradius 19.0015
lwrist 1.71256
lhand -25.2514 -4.18296
lfingers 7.12502
lthumb 1.26878 25.793
rfemur -11.3438 -3.33874 19.1415
rtibia 19.0308
rfoot -12.3886 -3.66612
rtoes 11.3883
lfemur -9.11694 5.67957 -17.578
ltibia 15.6483
lfoot -9.71531 5.72552
ltoes 0.424056
184
root 0.597279 17.6168 -14.1878 5.72632 0.0774133 -1.21256
lowerback -4.08736 -0.500848 -0.0498285
upperback 3.11618 -0.743811 1.5188
thorax 5.54466 -0.402592 1.53852
lowerneck -12.4894 0.483752 -1.99223
upperneck 35.2569 1.03364 0.664311
head 14.1007 0.26851 0.780299
rclavicle -2.78299e-015 6.16232e-015
rhumerus -22.3453 -10.6467 -84.6071
rradius 24.4832
rwrist 32.6159
rhand -19.539 -26.691
rfingers 7.12502
rthumb 6.78488 -56.5623
lclavicle -2.78299e-015 6.16232e-015
lhumerus -19.004 -8.41936 91.4642
lradius 19.004
lwrist 1.71589
lhand -25.2566 -4.15793
lfingers 7.12502
lthumb 1.2637 25.8181
rfemur -11.3589 -3.32829 19.1338
rtibia 19.0471
rfoot -12.3889 -3.6788
rtoes 11.3864
lfemur -9.13007 5.68584 -17.5863
ltibia 15.6586
lfoot -9.71298 5.71798
ltoes 0.41383
185
root 0.597927 17.6165 -14.1905 5.72366 0.0781846 -1.20859
lowerback -4.06562 -0.503435 -0.0508664
upperback 3.11987 -0.747279 1.52288
thorax 5.53627 -0.404431 1.54317
lowerneck -12.4991 0.487913 -1.99046
upperneck 35.2269 1.04136 0.65851
head 14.0892 0.271597 0.778606
rclavicle 2.23633e-015 7.35503e-015
rhumerus -22.3318 -10.6458 -84.5971
rradius 24.4884
rwrist 32.6074
rhand -19.5363 -26.6885
rfingers 7.12502
rthumb 6.78742 -56.5597
lclavicle 2.23633e-015 7.35503e-015
lhumerus -19.006 -8.42024 91.467
lradius 19.0093
lwrist 1.72496
lhand -25.2642 -4.14032
lfingers 7.12502
lthumb 1.25641 25.8357
rfemur -11.3744 -3.31638 19.1273
rtibia 19.0632
rfoot -12.3873 -3.69203
rtoes 11.3831
lfemur -9.14444 5.69094 -17.5936
ltibia 15.6699
lfoot -9.71118 5.71148
ltoes 0.408917
186
root 0.598552 17.6163 -14.1933 5.72267 0.0785518 -1.20296
lowerback -4.0458 -0.505187 -0.0533248
upperback 3.12363 -0.74949 1.5257
thorax 5.52901 -0.405678 1.54742
lowerneck -12.5069 0.491478 -1.98646
upperneck 35.1957 1.04731 0.653247
head 14.0767 0.274312 0.776443
rclavicle 2.78299e-015 -3.97569e-016
rhumerus -22.3197 -10.6486 -84.5866
rradius 24.494
rwrist 32.5948
rhand -19.5387 -26.6816
rfingers 7.12502
rthumb 6.78511 -56.5528
lclavicle 2.78299e-015 -3.97569e-016
lhumerus -19.0063 -8.42647 91.4702
lradius 19.0107
lwrist 1.73675
lhand -25.2728 -4.13369
lfingers 7.12502
lthumb 1.24808 25.8424
rfemur -11.392 -3.30548 19.1192
rtibia 19.079
rfoot -12.3836 -3.70326
rtoes 11.3878
lfemur -9.16105 5.69405 -17.6027
ltibia 15.6824
lfoot -9.71032 5.70581
ltoes 0.416391
187
root 0.599175 17.6161 -14.1961 5.72222 0.0760456 -1.19848
lowerback -4.02666 -0.505469 -0.0547799
upperback 3.12764 -0.749815 1.52859
thorax 5.52235 -0.405957 1.55132
lowerneck -12.5178 0.494842 -1.98633
upperneck 35.1691 1.0523 0.653302
head 14.067 0.27676 0.777035
rclavicle 1.44119e-015 2.78299e-015
rhumerus -22.3086 -10.656 -84.5745
rradius 24.4986
rwrist 32.5853
rhand -19.5391 -26.676
rfingers 7.12502
rthumb 6.78475 -56.5473
lclavicle 1.44119e-015 2.78299e-015
lhumerus -19.0075 -8.43768 91.4746
lradius 19.0116
lwrist 1.74793
lhand -25.2811 -4.13134
lfingers 7.12502
lthumb 1.24011 25.8448
rfemur -11.4103 -3.29425 19.1122
rtibia 19.094
rfoot -12.3784 -3.71082
rtoes 11.3909
lfemur -9.17834 5.6969 -17.6108
ltibia 15.6972
lfoot -9.71067 5.70301
ltoes 0.423595
188
root 0.599816 17.616 -14.1989 5.7232 0.0720962 -1.19625
lowerback -4.00859 -0.504769 -0.0533038
upperback 3.13159 -0.749033 1.53167
thorax 5.51615 -0.405579 1.55387
lowerneck -12.5279 0.497683 -1.98993
upperneck 35.1434 1.05569 0.658589
head 14.0574 0.278719 0.78016
rclavicle -4.27387e-015 1.43125e-014
rhumerus -22.2986 -10.6637 -84.5619
rradius 24.5039
rwrist 32.575
rhand -19.5389 -26.6695
rfingers 7.12502
rthumb 6.78496 -56.5408
lclavicle -4.27387e-015 1.43125e-014
lhumerus -19.0092 -8.45412 91.4802
lradius 19.012
lwrist 1.76053
lhand -25.2888 -4.13768
lfingers 7.12502
lthumb 1.23265 25.8385
rfemur -11.4303 -3.28206 19.1074
rtibia 19.1091
rfoot -12.3738 -3.71613
rtoes 11.3975
lfemur -9.19798 5.69861 -17.6165
ltibia 15.7139
lfoot -9.71118 5.70216
ltoes 0.440497
